<svg width="900" height="600" viewBox="0 0 900 600" xmlns="http://www.w3.org/2000/svg">
<rect x="0" y="0" width="900" height="600" opacity="1" fill="#FAFAFC" stroke="none"/>
<text x="355" y="20" dy="0.5ex" text-anchor="middle" font-family="sans-serif" font-size="24.193548387096776" opacity="1" fill="#000000">
big-response - efficiency
</text>
<text x="177" y="55" dy="0.5ex" text-anchor="middle" font-family="sans-serif" font-size="16.129032258064516" opacity="1" fill="#000000">
Requests/Core·s
</text>
<polyline fill="none" opacity="1" stroke="#000000" stroke-width="1" points="59,80 59,589 "/>
<text x="50" y="589" dy="0.5ex" text-anchor="end" font-family="sans-serif" font-size="12.903225806451614" opacity="1" fill="#000000">
0
</text>
<polyline fill="none" opacity="1" stroke="#000000" stroke-width="1" points="54,589 59,589 "/>
<text x="50" y="534" dy="0.5ex" text-anchor="end" font-family="sans-serif" font-size="12.903225806451614" opacity="1" fill="#000000">
5
</text>
<polyline fill="none" opacity="1" stroke="#000000" stroke-width="1" points="54,534 59,534 "/>
<text x="50" y="479" dy="0.5ex" text-anchor="end" font-family="sans-serif" font-size="12.903225806451614" opacity="1" fill="#000000">
10
</text>
<polyline fill="none" opacity="1" stroke="#000000" stroke-width="1" points="54,479 59,479 "/>
<text x="50" y="424" dy="0.5ex" text-anchor="end" font-family="sans-serif" font-size="12.903225806451614" opacity="1" fill="#000000">
15
</text>
<polyline fill="none" opacity="1" stroke="#000000" stroke-width="1" points="54,424 59,424 "/>
<text x="50" y="368" dy="0.5ex" text-anchor="end" font-family="sans-serif" font-size="12.903225806451614" opacity="1" fill="#000000">
20
</text>
<polyline fill="none" opacity="1" stroke="#000000" stroke-width="1" points="54,368 59,368 "/>
<text x="50" y="313" dy="0.5ex" text-anchor="end" font-family="sans-serif" font-size="12.903225806451614" opacity="1" fill="#000000">
25
</text>
<polyline fill="none" opacity="1" stroke="#000000" stroke-width="1" points="54,313 59,313 "/>
<text x="50" y="258" dy="0.5ex" text-anchor="end" font-family="sans-serif" font-size="12.903225806451614" opacity="1" fill="#000000">
30
</text>
<polyline fill="none" opacity="1" stroke="#000000" stroke-width="1" points="54,258 59,258 "/>
<text x="50" y="202" dy="0.5ex" text-anchor="end" font-family="sans-serif" font-size="12.903225806451614" opacity="1" fill="#000000">
35
</text>
<polyline fill="none" opacity="1" stroke="#000000" stroke-width="1" points="54,202 59,202 "/>
<text x="50" y="147" dy="0.5ex" text-anchor="end" font-family="sans-serif" font-size="12.903225806451614" opacity="1" fill="#000000">
40
</text>
<polyline fill="none" opacity="1" stroke="#000000" stroke-width="1" points="54,147 59,147 "/>
<text x="50" y="92" dy="0.5ex" text-anchor="end" font-family="sans-serif" font-size="12.903225806451614" opacity="1" fill="#000000">
45
</text>
<polyline fill="none" opacity="1" stroke="#000000" stroke-width="1" points="54,92 59,92 "/>
<rect x="65" y="129" width="46" height="460" opacity="1" fill="#BDE56C" stroke="none"/>
<text x="88" y="118" dy="0.76em" text-anchor="start" font-family="sans-serif" font-size="12.903225806451614" opacity="1" fill="#000000" transform="rotate(270, 88, 118)">
42
</text>
<rect x="122" y="197" width="45" height="392" opacity="1" fill="#E796F3" stroke="none"/>
<text x="145" y="187" dy="0.76em" text-anchor="start" font-family="sans-serif" font-size="12.903225806451614" opacity="1" fill="#000000" transform="rotate(270, 145, 187)">
35
</text>
<rect x="179" y="498" width="45" height="91" opacity="1" fill="#07A865" stroke="none"/>
<text x="202" y="487" dy="0.76em" text-anchor="start" font-family="sans-serif" font-size="12.903225806451614" opacity="1" fill="#000000" transform="rotate(270, 202, 487)">
8.3
</text>
<rect x="236" y="504" width="45" height="85" opacity="1" fill="#DF682D" stroke="none"/>
<text x="258" y="494" dy="0.76em" text-anchor="start" font-family="sans-serif" font-size="12.903225806451614" opacity="1" fill="#000000" transform="rotate(270, 258, 494)">
7.7
</text>
<rect x="292" y="535" width="46" height="54" opacity="1" fill="#1E90FF" stroke="none"/>
<text x="315" y="525" dy="0.76em" text-anchor="start" font-family="sans-serif" font-size="12.903225806451614" opacity="1" fill="#000000" transform="rotate(270, 315, 525)">
4.9
</text>
<text x="532" y="55" dy="0.5ex" text-anchor="middle" font-family="sans-serif" font-size="16.129032258064516" opacity="1" fill="#000000">
Requests/GB·s
</text>
<polyline fill="none" opacity="1" stroke="#000000" stroke-width="1" points="414,80 414,589 "/>
<text x="405" y="589" dy="0.5ex" text-anchor="end" font-family="sans-serif" font-size="12.903225806451614" opacity="1" fill="#000000">
0
</text>
<polyline fill="none" opacity="1" stroke="#000000" stroke-width="1" points="409,589 414,589 "/>
<text x="405" y="531" dy="0.5ex" text-anchor="end" font-family="sans-serif" font-size="12.903225806451614" opacity="1" fill="#000000">
50
</text>
<polyline fill="none" opacity="1" stroke="#000000" stroke-width="1" points="409,531 414,531 "/>
<text x="405" y="472" dy="0.5ex" text-anchor="end" font-family="sans-serif" font-size="12.903225806451614" opacity="1" fill="#000000">
100
</text>
<polyline fill="none" opacity="1" stroke="#000000" stroke-width="1" points="409,472 414,472 "/>
<text x="405" y="413" dy="0.5ex" text-anchor="end" font-family="sans-serif" font-size="12.903225806451614" opacity="1" fill="#000000">
150
</text>
<polyline fill="none" opacity="1" stroke="#000000" stroke-width="1" points="409,413 414,413 "/>
<text x="405" y="354" dy="0.5ex" text-anchor="end" font-family="sans-serif" font-size="12.903225806451614" opacity="1" fill="#000000">
200
</text>
<polyline fill="none" opacity="1" stroke="#000000" stroke-width="1" points="409,354 414,354 "/>
<text x="405" y="295" dy="0.5ex" text-anchor="end" font-family="sans-serif" font-size="12.903225806451614" opacity="1" fill="#000000">
250
</text>
<polyline fill="none" opacity="1" stroke="#000000" stroke-width="1" points="409,295 414,295 "/>
<text x="405" y="236" dy="0.5ex" text-anchor="end" font-family="sans-serif" font-size="12.903225806451614" opacity="1" fill="#000000">
300
</text>
<polyline fill="none" opacity="1" stroke="#000000" stroke-width="1" points="409,236 414,236 "/>
<text x="405" y="177" dy="0.5ex" text-anchor="end" font-family="sans-serif" font-size="12.903225806451614" opacity="1" fill="#000000">
350
</text>
<polyline fill="none" opacity="1" stroke="#000000" stroke-width="1" points="409,177 414,177 "/>
<text x="405" y="118" dy="0.5ex" text-anchor="end" font-family="sans-serif" font-size="12.903225806451614" opacity="1" fill="#000000">
400
</text>
<polyline fill="none" opacity="1" stroke="#000000" stroke-width="1" points="409,118 414,118 "/>
<rect x="420" y="127" width="46" height="462" opacity="1" fill="#E796F3" stroke="none"/>
<text x="443" y="117" dy="0.76em" text-anchor="start" font-family="sans-serif" font-size="12.903225806451614" opacity="1" fill="#000000" transform="rotate(270, 443, 117)">
393
</text>
<rect x="477" y="369" width="45" height="220" opacity="1" fill="#BDE56C" stroke="none"/>
<text x="500" y="358" dy="0.76em" text-anchor="start" font-family="sans-serif" font-size="12.903225806451614" opacity="1" fill="#000000" transform="rotate(270, 500, 358)">
187
</text>
<rect x="534" y="467" width="45" height="122" opacity="1" fill="#1E90FF" stroke="none"/>
<text x="557" y="457" dy="0.76em" text-anchor="start" font-family="sans-serif" font-size="12.903225806451614" opacity="1" fill="#000000" transform="rotate(270, 557, 457)">
104
</text>
<rect x="591" y="573" width="45" height="16" opacity="1" fill="#07A865" stroke="none"/>
<text x="613" y="563" dy="0.76em" text-anchor="start" font-family="sans-serif" font-size="12.903225806451614" opacity="1" fill="#000000" transform="rotate(270, 613, 563)">
14
</text>
<rect x="647" y="578" width="46" height="11" opacity="1" fill="#DF682D" stroke="none"/>
<text x="670" y="567" dy="0.76em" text-anchor="start" font-family="sans-serif" font-size="12.903225806451614" opacity="1" fill="#000000" transform="rotate(270, 670, 567)">
10
</text>
<rect x="715" y="60" width="15" height="15" opacity="1" fill="#07A865" stroke="none"/>
<text x="735" y="63" dy="0.76em" text-anchor="start" font-family="sans-serif" font-size="14.516129032258064" opacity="1" fill="#000000">
Apollo Router
</text>
<rect x="715" y="85" width="15" height="15" opacity="1" fill="#1E90FF" stroke="none"/>
<text x="735" y="88" dy="0.76em" text-anchor="start" font-family="sans-serif" font-size="14.516129032258064" opacity="1" fill="#000000">
Cosmo Router
</text>
<rect x="715" y="110" width="15" height="15" opacity="1" fill="#E796F3" stroke="none"/>
<text x="735" y="113" dy="0.76em" text-anchor="start" font-family="sans-serif" font-size="14.516129032258064" opacity="1" fill="#000000">
Grafbase Gateway
</text>
<rect x="715" y="135" width="15" height="15" opacity="1" fill="#DF682D" stroke="none"/>
<text x="735" y="138" dy="0.76em" text-anchor="start" font-family="sans-serif" font-size="14.516129032258064" opacity="1" fill="#000000">
Hive Gateway
</text>
<rect x="715" y="160" width="15" height="15" opacity="1" fill="#BDE56C" stroke="none"/>
<text x="735" y="163" dy="0.76em" text-anchor="start" font-family="sans-serif" font-size="14.516129032258064" opacity="1" fill="#000000">
Hive Router
</text>
</svg>
