<svg width="900" height="600" viewBox="0 0 900 600" xmlns="http://www.w3.org/2000/svg">
<rect x="0" y="0" width="900" height="600" opacity="1" fill="#FAFAFC" stroke="none"/>
<text x="355" y="20" dy="0.5ex" text-anchor="middle" font-family="sans-serif" font-size="24.193548387096776" opacity="1" fill="#000000">
big-response - efficiency
</text>
<text x="177" y="55" dy="0.5ex" text-anchor="middle" font-family="sans-serif" font-size="16.129032258064516" opacity="1" fill="#000000">
Requests/Core·s
</text>
<polyline fill="none" opacity="1" stroke="#000000" stroke-width="1" points="59,80 59,589 "/>
<text x="50" y="589" dy="0.5ex" text-anchor="end" font-family="sans-serif" font-size="12.903225806451614" opacity="1" fill="#000000">
0
</text>
<polyline fill="none" opacity="1" stroke="#000000" stroke-width="1" points="54,589 59,589 "/>
<text x="50" y="538" dy="0.5ex" text-anchor="end" font-family="sans-serif" font-size="12.903225806451614" opacity="1" fill="#000000">
5
</text>
<polyline fill="none" opacity="1" stroke="#000000" stroke-width="1" points="54,538 59,538 "/>
<text x="50" y="486" dy="0.5ex" text-anchor="end" font-family="sans-serif" font-size="12.903225806451614" opacity="1" fill="#000000">
10
</text>
<polyline fill="none" opacity="1" stroke="#000000" stroke-width="1" points="54,486 59,486 "/>
<text x="50" y="434" dy="0.5ex" text-anchor="end" font-family="sans-serif" font-size="12.903225806451614" opacity="1" fill="#000000">
15
</text>
<polyline fill="none" opacity="1" stroke="#000000" stroke-width="1" points="54,434 59,434 "/>
<text x="50" y="382" dy="0.5ex" text-anchor="end" font-family="sans-serif" font-size="12.903225806451614" opacity="1" fill="#000000">
20
</text>
<polyline fill="none" opacity="1" stroke="#000000" stroke-width="1" points="54,382 59,382 "/>
<text x="50" y="330" dy="0.5ex" text-anchor="end" font-family="sans-serif" font-size="12.903225806451614" opacity="1" fill="#000000">
25
</text>
<polyline fill="none" opacity="1" stroke="#000000" stroke-width="1" points="54,330 59,330 "/>
<text x="50" y="278" dy="0.5ex" text-anchor="end" font-family="sans-serif" font-size="12.903225806451614" opacity="1" fill="#000000">
30
</text>
<polyline fill="none" opacity="1" stroke="#000000" stroke-width="1" points="54,278 59,278 "/>
<text x="50" y="226" dy="0.5ex" text-anchor="end" font-family="sans-serif" font-size="12.903225806451614" opacity="1" fill="#000000">
35
</text>
<polyline fill="none" opacity="1" stroke="#000000" stroke-width="1" points="54,226 59,226 "/>
<text x="50" y="174" dy="0.5ex" text-anchor="end" font-family="sans-serif" font-size="12.903225806451614" opacity="1" fill="#000000">
40
</text>
<polyline fill="none" opacity="1" stroke="#000000" stroke-width="1" points="54,174 59,174 "/>
<text x="50" y="122" dy="0.5ex" text-anchor="end" font-family="sans-serif" font-size="12.903225806451614" opacity="1" fill="#000000">
45
</text>
<polyline fill="none" opacity="1" stroke="#000000" stroke-width="1" points="54,122 59,122 "/>
<rect x="65" y="131" width="46" height="458" opacity="1" fill="#BDE56C" stroke="none"/>
<text x="88" y="121" dy="0.76em" text-anchor="start" font-family="sans-serif" font-size="12.903225806451614" opacity="1" fill="#000000" transform="rotate(270, 88, 121)">
44
</text>
<rect x="122" y="227" width="45" height="362" opacity="1" fill="#E796F3" stroke="none"/>
<text x="145" y="217" dy="0.76em" text-anchor="start" font-family="sans-serif" font-size="12.903225806451614" opacity="1" fill="#000000" transform="rotate(270, 145, 217)">
35
</text>
<rect x="179" y="504" width="45" height="85" opacity="1" fill="#07A865" stroke="none"/>
<text x="202" y="494" dy="0.76em" text-anchor="start" font-family="sans-serif" font-size="12.903225806451614" opacity="1" fill="#000000" transform="rotate(270, 202, 494)">
8.2
</text>
<rect x="236" y="511" width="45" height="78" opacity="1" fill="#DF682D" stroke="none"/>
<text x="258" y="501" dy="0.76em" text-anchor="start" font-family="sans-serif" font-size="12.903225806451614" opacity="1" fill="#000000" transform="rotate(270, 258, 501)">
7.6
</text>
<rect x="292" y="539" width="46" height="50" opacity="1" fill="#1E90FF" stroke="none"/>
<text x="315" y="529" dy="0.76em" text-anchor="start" font-family="sans-serif" font-size="12.903225806451614" opacity="1" fill="#000000" transform="rotate(270, 315, 529)">
4.8
</text>
<text x="532" y="55" dy="0.5ex" text-anchor="middle" font-family="sans-serif" font-size="16.129032258064516" opacity="1" fill="#000000">
Requests/GB·s
</text>
<polyline fill="none" opacity="1" stroke="#000000" stroke-width="1" points="414,80 414,589 "/>
<text x="405" y="589" dy="0.5ex" text-anchor="end" font-family="sans-serif" font-size="12.903225806451614" opacity="1" fill="#000000">
0
</text>
<polyline fill="none" opacity="1" stroke="#000000" stroke-width="1" points="409,589 414,589 "/>
<text x="405" y="525" dy="0.5ex" text-anchor="end" font-family="sans-serif" font-size="12.903225806451614" opacity="1" fill="#000000">
50
</text>
<polyline fill="none" opacity="1" stroke="#000000" stroke-width="1" points="409,525 414,525 "/>
<text x="405" y="461" dy="0.5ex" text-anchor="end" font-family="sans-serif" font-size="12.903225806451614" opacity="1" fill="#000000">
100
</text>
<polyline fill="none" opacity="1" stroke="#000000" stroke-width="1" points="409,461 414,461 "/>
<text x="405" y="397" dy="0.5ex" text-anchor="end" font-family="sans-serif" font-size="12.903225806451614" opacity="1" fill="#000000">
150
</text>
<polyline fill="none" opacity="1" stroke="#000000" stroke-width="1" points="409,397 414,397 "/>
<text x="405" y="332" dy="0.5ex" text-anchor="end" font-family="sans-serif" font-size="12.903225806451614" opacity="1" fill="#000000">
200
</text>
<polyline fill="none" opacity="1" stroke="#000000" stroke-width="1" points="409,332 414,332 "/>
<text x="405" y="268" dy="0.5ex" text-anchor="end" font-family="sans-serif" font-size="12.903225806451614" opacity="1" fill="#000000">
250
</text>
<polyline fill="none" opacity="1" stroke="#000000" stroke-width="1" points="409,268 414,268 "/>
<text x="405" y="204" dy="0.5ex" text-anchor="end" font-family="sans-serif" font-size="12.903225806451614" opacity="1" fill="#000000">
300
</text>
<polyline fill="none" opacity="1" stroke="#000000" stroke-width="1" points="409,204 414,204 "/>
<text x="405" y="140" dy="0.5ex" text-anchor="end" font-family="sans-serif" font-size="12.903225806451614" opacity="1" fill="#000000">
350
</text>
<polyline fill="none" opacity="1" stroke="#000000" stroke-width="1" points="409,140 414,140 "/>
<rect x="420" y="128" width="46" height="461" opacity="1" fill="#E796F3" stroke="none"/>
<text x="443" y="117" dy="0.76em" text-anchor="start" font-family="sans-serif" font-size="12.903225806451614" opacity="1" fill="#000000" transform="rotate(270, 443, 117)">
359
</text>
<rect x="477" y="349" width="45" height="240" opacity="1" fill="#BDE56C" stroke="none"/>
<text x="500" y="338" dy="0.76em" text-anchor="start" font-family="sans-serif" font-size="12.903225806451614" opacity="1" fill="#000000" transform="rotate(270, 500, 338)">
187
</text>
<rect x="534" y="483" width="45" height="106" opacity="1" fill="#1E90FF" stroke="none"/>
<text x="557" y="473" dy="0.76em" text-anchor="start" font-family="sans-serif" font-size="12.903225806451614" opacity="1" fill="#000000" transform="rotate(270, 557, 473)">
83
</text>
<rect x="591" y="573" width="45" height="16" opacity="1" fill="#07A865" stroke="none"/>
<text x="613" y="562" dy="0.76em" text-anchor="start" font-family="sans-serif" font-size="12.903225806451614" opacity="1" fill="#000000" transform="rotate(270, 613, 562)">
13
</text>
<rect x="647" y="577" width="46" height="12" opacity="1" fill="#DF682D" stroke="none"/>
<text x="670" y="566" dy="0.76em" text-anchor="start" font-family="sans-serif" font-size="12.903225806451614" opacity="1" fill="#000000" transform="rotate(270, 670, 566)">
10
</text>
<rect x="715" y="60" width="15" height="15" opacity="1" fill="#07A865" stroke="none"/>
<text x="735" y="63" dy="0.76em" text-anchor="start" font-family="sans-serif" font-size="14.516129032258064" opacity="1" fill="#000000">
Apollo Router
</text>
<rect x="715" y="85" width="15" height="15" opacity="1" fill="#1E90FF" stroke="none"/>
<text x="735" y="88" dy="0.76em" text-anchor="start" font-family="sans-serif" font-size="14.516129032258064" opacity="1" fill="#000000">
Cosmo Router
</text>
<rect x="715" y="110" width="15" height="15" opacity="1" fill="#E796F3" stroke="none"/>
<text x="735" y="113" dy="0.76em" text-anchor="start" font-family="sans-serif" font-size="14.516129032258064" opacity="1" fill="#000000">
Grafbase Gateway
</text>
<rect x="715" y="135" width="15" height="15" opacity="1" fill="#DF682D" stroke="none"/>
<text x="735" y="138" dy="0.76em" text-anchor="start" font-family="sans-serif" font-size="14.516129032258064" opacity="1" fill="#000000">
Hive Gateway
</text>
<rect x="715" y="160" width="15" height="15" opacity="1" fill="#BDE56C" stroke="none"/>
<text x="735" y="163" dy="0.76em" text-anchor="start" font-family="sans-serif" font-size="14.516129032258064" opacity="1" fill="#000000">
Hive Router
</text>
</svg>
