<svg width="900" height="600" viewBox="0 0 900 600" xmlns="http://www.w3.org/2000/svg">
<rect x="0" y="0" width="900" height="600" opacity="1" fill="#FAFAFC" stroke="none"/>
<text x="355" y="20" dy="0.5ex" text-anchor="middle" font-family="sans-serif" font-size="24.193548387096776" opacity="1" fill="#000000">
query - efficiency
</text>
<text x="177" y="55" dy="0.5ex" text-anchor="middle" font-family="sans-serif" font-size="16.129032258064516" opacity="1" fill="#000000">
Requests/Core·s
</text>
<polyline fill="none" opacity="1" stroke="#000000" stroke-width="1" points="59,80 59,589 "/>
<text x="50" y="589" dy="0.5ex" text-anchor="end" font-family="sans-serif" font-size="12.903225806451614" opacity="1" fill="#000000">
0
</text>
<polyline fill="none" opacity="1" stroke="#000000" stroke-width="1" points="54,589 59,589 "/>
<text x="50" y="542" dy="0.5ex" text-anchor="end" font-family="sans-serif" font-size="12.903225806451614" opacity="1" fill="#000000">
100
</text>
<polyline fill="none" opacity="1" stroke="#000000" stroke-width="1" points="54,542 59,542 "/>
<text x="50" y="494" dy="0.5ex" text-anchor="end" font-family="sans-serif" font-size="12.903225806451614" opacity="1" fill="#000000">
200
</text>
<polyline fill="none" opacity="1" stroke="#000000" stroke-width="1" points="54,494 59,494 "/>
<text x="50" y="446" dy="0.5ex" text-anchor="end" font-family="sans-serif" font-size="12.903225806451614" opacity="1" fill="#000000">
300
</text>
<polyline fill="none" opacity="1" stroke="#000000" stroke-width="1" points="54,446 59,446 "/>
<text x="50" y="399" dy="0.5ex" text-anchor="end" font-family="sans-serif" font-size="12.903225806451614" opacity="1" fill="#000000">
400
</text>
<polyline fill="none" opacity="1" stroke="#000000" stroke-width="1" points="54,399 59,399 "/>
<text x="50" y="351" dy="0.5ex" text-anchor="end" font-family="sans-serif" font-size="12.903225806451614" opacity="1" fill="#000000">
500
</text>
<polyline fill="none" opacity="1" stroke="#000000" stroke-width="1" points="54,351 59,351 "/>
<text x="50" y="303" dy="0.5ex" text-anchor="end" font-family="sans-serif" font-size="12.903225806451614" opacity="1" fill="#000000">
600
</text>
<polyline fill="none" opacity="1" stroke="#000000" stroke-width="1" points="54,303 59,303 "/>
<text x="50" y="256" dy="0.5ex" text-anchor="end" font-family="sans-serif" font-size="12.903225806451614" opacity="1" fill="#000000">
700
</text>
<polyline fill="none" opacity="1" stroke="#000000" stroke-width="1" points="54,256 59,256 "/>
<text x="50" y="208" dy="0.5ex" text-anchor="end" font-family="sans-serif" font-size="12.903225806451614" opacity="1" fill="#000000">
800
</text>
<polyline fill="none" opacity="1" stroke="#000000" stroke-width="1" points="54,208 59,208 "/>
<text x="50" y="160" dy="0.5ex" text-anchor="end" font-family="sans-serif" font-size="12.903225806451614" opacity="1" fill="#000000">
900
</text>
<polyline fill="none" opacity="1" stroke="#000000" stroke-width="1" points="54,160 59,160 "/>
<text x="50" y="112" dy="0.5ex" text-anchor="end" font-family="sans-serif" font-size="12.903225806451614" opacity="1" fill="#000000">
1k
</text>
<polyline fill="none" opacity="1" stroke="#000000" stroke-width="1" points="54,112 59,112 "/>
<rect x="65" y="127" width="46" height="462" opacity="1" fill="#BDE56C" stroke="none"/>
<text x="88" y="117" dy="0.76em" text-anchor="start" font-family="sans-serif" font-size="12.903225806451614" opacity="1" fill="#000000" transform="rotate(270, 88, 117)">
969
</text>
<rect x="122" y="257" width="45" height="332" opacity="1" fill="#E796F3" stroke="none"/>
<text x="145" y="247" dy="0.76em" text-anchor="start" font-family="sans-serif" font-size="12.903225806451614" opacity="1" fill="#000000" transform="rotate(270, 145, 247)">
697
</text>
<rect x="179" y="492" width="45" height="97" opacity="1" fill="#07A865" stroke="none"/>
<text x="202" y="482" dy="0.76em" text-anchor="start" font-family="sans-serif" font-size="12.903225806451614" opacity="1" fill="#000000" transform="rotate(270, 202, 482)">
203
</text>
<rect x="236" y="513" width="45" height="76" opacity="1" fill="#1E90FF" stroke="none"/>
<text x="258" y="503" dy="0.76em" text-anchor="start" font-family="sans-serif" font-size="12.903225806451614" opacity="1" fill="#000000" transform="rotate(270, 258, 503)">
160
</text>
<rect x="292" y="552" width="46" height="37" opacity="1" fill="#DF682D" stroke="none"/>
<text x="315" y="542" dy="0.76em" text-anchor="start" font-family="sans-serif" font-size="12.903225806451614" opacity="1" fill="#000000" transform="rotate(270, 315, 542)">
78
</text>
<text x="532" y="55" dy="0.5ex" text-anchor="middle" font-family="sans-serif" font-size="16.129032258064516" opacity="1" fill="#000000">
Requests/GB·s
</text>
<polyline fill="none" opacity="1" stroke="#000000" stroke-width="1" points="414,80 414,589 "/>
<text x="405" y="589" dy="0.5ex" text-anchor="end" font-family="sans-serif" font-size="12.903225806451614" opacity="1" fill="#000000">
0
</text>
<polyline fill="none" opacity="1" stroke="#000000" stroke-width="1" points="409,589 414,589 "/>
<text x="405" y="512" dy="0.5ex" text-anchor="end" font-family="sans-serif" font-size="12.903225806451614" opacity="1" fill="#000000">
500
</text>
<polyline fill="none" opacity="1" stroke="#000000" stroke-width="1" points="409,512 414,512 "/>
<text x="405" y="435" dy="0.5ex" text-anchor="end" font-family="sans-serif" font-size="12.903225806451614" opacity="1" fill="#000000">
1k
</text>
<polyline fill="none" opacity="1" stroke="#000000" stroke-width="1" points="409,435 414,435 "/>
<text x="405" y="358" dy="0.5ex" text-anchor="end" font-family="sans-serif" font-size="12.903225806451614" opacity="1" fill="#000000">
2k
</text>
<polyline fill="none" opacity="1" stroke="#000000" stroke-width="1" points="409,358 414,358 "/>
<text x="405" y="280" dy="0.5ex" text-anchor="end" font-family="sans-serif" font-size="12.903225806451614" opacity="1" fill="#000000">
2k
</text>
<polyline fill="none" opacity="1" stroke="#000000" stroke-width="1" points="409,280 414,280 "/>
<text x="405" y="203" dy="0.5ex" text-anchor="end" font-family="sans-serif" font-size="12.903225806451614" opacity="1" fill="#000000">
2k
</text>
<polyline fill="none" opacity="1" stroke="#000000" stroke-width="1" points="409,203 414,203 "/>
<text x="405" y="126" dy="0.5ex" text-anchor="end" font-family="sans-serif" font-size="12.903225806451614" opacity="1" fill="#000000">
3k
</text>
<polyline fill="none" opacity="1" stroke="#000000" stroke-width="1" points="409,126 414,126 "/>
<rect x="420" y="127" width="46" height="462" opacity="1" fill="#E796F3" stroke="none"/>
<text x="443" y="117" dy="0.76em" text-anchor="start" font-family="sans-serif" font-size="12.903225806451614" opacity="1" fill="#000000" transform="rotate(270, 443, 117)">
3k
</text>
<rect x="477" y="247" width="45" height="342" opacity="1" fill="#1E90FF" stroke="none"/>
<text x="500" y="237" dy="0.76em" text-anchor="start" font-family="sans-serif" font-size="12.903225806451614" opacity="1" fill="#000000" transform="rotate(270, 500, 237)">
2k
</text>
<rect x="534" y="361" width="45" height="228" opacity="1" fill="#07A865" stroke="none"/>
<text x="557" y="351" dy="0.76em" text-anchor="start" font-family="sans-serif" font-size="12.903225806451614" opacity="1" fill="#000000" transform="rotate(270, 557, 351)">
1k
</text>
<rect x="591" y="490" width="45" height="99" opacity="1" fill="#BDE56C" stroke="none"/>
<text x="613" y="480" dy="0.76em" text-anchor="start" font-family="sans-serif" font-size="12.903225806451614" opacity="1" fill="#000000" transform="rotate(270, 613, 480)">
644
</text>
<rect x="647" y="565" width="46" height="24" opacity="1" fill="#DF682D" stroke="none"/>
<text x="670" y="555" dy="0.76em" text-anchor="start" font-family="sans-serif" font-size="12.903225806451614" opacity="1" fill="#000000" transform="rotate(270, 670, 555)">
156
</text>
<rect x="715" y="60" width="15" height="15" opacity="1" fill="#07A865" stroke="none"/>
<text x="735" y="63" dy="0.76em" text-anchor="start" font-family="sans-serif" font-size="14.516129032258064" opacity="1" fill="#000000">
Apollo Router
</text>
<rect x="715" y="85" width="15" height="15" opacity="1" fill="#1E90FF" stroke="none"/>
<text x="735" y="88" dy="0.76em" text-anchor="start" font-family="sans-serif" font-size="14.516129032258064" opacity="1" fill="#000000">
Cosmo Router
</text>
<rect x="715" y="110" width="15" height="15" opacity="1" fill="#E796F3" stroke="none"/>
<text x="735" y="113" dy="0.76em" text-anchor="start" font-family="sans-serif" font-size="14.516129032258064" opacity="1" fill="#000000">
Grafbase Gateway
</text>
<rect x="715" y="135" width="15" height="15" opacity="1" fill="#DF682D" stroke="none"/>
<text x="735" y="138" dy="0.76em" text-anchor="start" font-family="sans-serif" font-size="14.516129032258064" opacity="1" fill="#000000">
Hive Gateway
</text>
<rect x="715" y="160" width="15" height="15" opacity="1" fill="#BDE56C" stroke="none"/>
<text x="735" y="163" dy="0.76em" text-anchor="start" font-family="sans-serif" font-size="14.516129032258064" opacity="1" fill="#000000">
Hive Router
</text>
</svg>
