<svg width="900" height="600" viewBox="0 0 900 600" xmlns="http://www.w3.org/2000/svg">
<text x="352" y="20" dy="0.5ex" text-anchor="middle" font-family="sans-serif" font-size="24.193548387096776" opacity="1" fill="#000000">
query - quality
</text>
<text x="352" y="55" dy="0.5ex" text-anchor="middle" font-family="sans-serif" font-size="16.129032258064516" opacity="1" fill="#000000">
Average Subgraph Requests
</text>
<polyline fill="none" opacity="1" stroke="#000000" stroke-width="1" points="59,80 59,589 "/>
<text x="50" y="589" dy="0.5ex" text-anchor="end" font-family="sans-serif" font-size="12.903225806451614" opacity="1" fill="#000000">
0
</text>
<polyline fill="none" opacity="1" stroke="#000000" stroke-width="1" points="54,589 59,589 "/>
<text x="50" y="533" dy="0.5ex" text-anchor="end" font-family="sans-serif" font-size="12.903225806451614" opacity="1" fill="#000000">
2
</text>
<polyline fill="none" opacity="1" stroke="#000000" stroke-width="1" points="54,533 59,533 "/>
<text x="50" y="476" dy="0.5ex" text-anchor="end" font-family="sans-serif" font-size="12.903225806451614" opacity="1" fill="#000000">
4
</text>
<polyline fill="none" opacity="1" stroke="#000000" stroke-width="1" points="54,476 59,476 "/>
<text x="50" y="420" dy="0.5ex" text-anchor="end" font-family="sans-serif" font-size="12.903225806451614" opacity="1" fill="#000000">
6
</text>
<polyline fill="none" opacity="1" stroke="#000000" stroke-width="1" points="54,420 59,420 "/>
<text x="50" y="363" dy="0.5ex" text-anchor="end" font-family="sans-serif" font-size="12.903225806451614" opacity="1" fill="#000000">
8
</text>
<polyline fill="none" opacity="1" stroke="#000000" stroke-width="1" points="54,363 59,363 "/>
<text x="50" y="307" dy="0.5ex" text-anchor="end" font-family="sans-serif" font-size="12.903225806451614" opacity="1" fill="#000000">
10
</text>
<polyline fill="none" opacity="1" stroke="#000000" stroke-width="1" points="54,307 59,307 "/>
<text x="50" y="250" dy="0.5ex" text-anchor="end" font-family="sans-serif" font-size="12.903225806451614" opacity="1" fill="#000000">
12
</text>
<polyline fill="none" opacity="1" stroke="#000000" stroke-width="1" points="54,250 59,250 "/>
<text x="50" y="194" dy="0.5ex" text-anchor="end" font-family="sans-serif" font-size="12.903225806451614" opacity="1" fill="#000000">
14
</text>
<polyline fill="none" opacity="1" stroke="#000000" stroke-width="1" points="54,194 59,194 "/>
<text x="50" y="137" dy="0.5ex" text-anchor="end" font-family="sans-serif" font-size="12.903225806451614" opacity="1" fill="#000000">
16
</text>
<polyline fill="none" opacity="1" stroke="#000000" stroke-width="1" points="54,137 59,137 "/>
<text x="50" y="80" dy="0.5ex" text-anchor="end" font-family="sans-serif" font-size="12.903225806451614" opacity="1" fill="#000000">
18
</text>
<polyline fill="none" opacity="1" stroke="#000000" stroke-width="1" points="54,80 59,80 "/>
<rect x="81" y="363" width="169" height="226" opacity="1" fill="#1E90FF" stroke="none"/>
<text x="165" y="353" dy="0.76em" text-anchor="start" font-family="sans-serif" font-size="12.903225806451614" opacity="1" fill="#000000" transform="rotate(270, 165, 353)">
8.0
</text>
<rect x="292" y="222" width="169" height="367" opacity="1" fill="#E796F3" stroke="none"/>
<text x="377" y="212" dy="0.76em" text-anchor="start" font-family="sans-serif" font-size="12.903225806451614" opacity="1" fill="#000000" transform="rotate(270, 377, 212)">
13
</text>
<rect x="503" y="137" width="169" height="452" opacity="1" fill="#07A865" stroke="none"/>
<text x="588" y="127" dy="0.76em" text-anchor="start" font-family="sans-serif" font-size="12.903225806451614" opacity="1" fill="#000000" transform="rotate(270, 588, 127)">
16
</text>
<rect x="710" y="60" width="15" height="15" opacity="1" fill="#07A865" stroke="none"/>
<text x="730" y="63" dy="0.76em" text-anchor="start" font-family="sans-serif" font-size="14.516129032258064" opacity="1" fill="#000000">
Apollo Router
</text>
<rect x="710" y="85" width="15" height="15" opacity="1" fill="#1E90FF" stroke="none"/>
<text x="730" y="88" dy="0.76em" text-anchor="start" font-family="sans-serif" font-size="14.516129032258064" opacity="1" fill="#000000">
Cosmo Router
</text>
<rect x="710" y="110" width="15" height="15" opacity="1" fill="#E796F3" stroke="none"/>
<text x="730" y="113" dy="0.76em" text-anchor="start" font-family="sans-serif" font-size="14.516129032258064" opacity="1" fill="#000000">
Grafbase Gateway
</text>
</svg>
