<svg width="900" height="600" viewBox="0 0 900 600" xmlns="http://www.w3.org/2000/svg">
<text x="352" y="20" dy="0.5ex" text-anchor="middle" font-family="sans-serif" font-size="24.193548387096776" opacity="1" fill="#000000">
query - efficiency
</text>
<text x="176" y="55" dy="0.5ex" text-anchor="middle" font-family="sans-serif" font-size="16.129032258064516" opacity="1" fill="#000000">
Requests/Core·s
</text>
<polyline fill="none" opacity="1" stroke="#000000" stroke-width="1" points="59,80 59,589 "/>
<text x="50" y="589" dy="0.5ex" text-anchor="end" font-family="sans-serif" font-size="12.903225806451614" opacity="1" fill="#000000">
0
</text>
<polyline fill="none" opacity="1" stroke="#000000" stroke-width="1" points="54,589 59,589 "/>
<text x="50" y="539" dy="0.5ex" text-anchor="end" font-family="sans-serif" font-size="12.903225806451614" opacity="1" fill="#000000">
100
</text>
<polyline fill="none" opacity="1" stroke="#000000" stroke-width="1" points="54,539 59,539 "/>
<text x="50" y="488" dy="0.5ex" text-anchor="end" font-family="sans-serif" font-size="12.903225806451614" opacity="1" fill="#000000">
200
</text>
<polyline fill="none" opacity="1" stroke="#000000" stroke-width="1" points="54,488 59,488 "/>
<text x="50" y="438" dy="0.5ex" text-anchor="end" font-family="sans-serif" font-size="12.903225806451614" opacity="1" fill="#000000">
300
</text>
<polyline fill="none" opacity="1" stroke="#000000" stroke-width="1" points="54,438 59,438 "/>
<text x="50" y="387" dy="0.5ex" text-anchor="end" font-family="sans-serif" font-size="12.903225806451614" opacity="1" fill="#000000">
400
</text>
<polyline fill="none" opacity="1" stroke="#000000" stroke-width="1" points="54,387 59,387 "/>
<text x="50" y="337" dy="0.5ex" text-anchor="end" font-family="sans-serif" font-size="12.903225806451614" opacity="1" fill="#000000">
500
</text>
<polyline fill="none" opacity="1" stroke="#000000" stroke-width="1" points="54,337 59,337 "/>
<text x="50" y="286" dy="0.5ex" text-anchor="end" font-family="sans-serif" font-size="12.903225806451614" opacity="1" fill="#000000">
600
</text>
<polyline fill="none" opacity="1" stroke="#000000" stroke-width="1" points="54,286 59,286 "/>
<text x="50" y="235" dy="0.5ex" text-anchor="end" font-family="sans-serif" font-size="12.903225806451614" opacity="1" fill="#000000">
700
</text>
<polyline fill="none" opacity="1" stroke="#000000" stroke-width="1" points="54,235 59,235 "/>
<text x="50" y="185" dy="0.5ex" text-anchor="end" font-family="sans-serif" font-size="12.903225806451614" opacity="1" fill="#000000">
800
</text>
<polyline fill="none" opacity="1" stroke="#000000" stroke-width="1" points="54,185 59,185 "/>
<text x="50" y="134" dy="0.5ex" text-anchor="end" font-family="sans-serif" font-size="12.903225806451614" opacity="1" fill="#000000">
900
</text>
<polyline fill="none" opacity="1" stroke="#000000" stroke-width="1" points="54,134 59,134 "/>
<text x="50" y="84" dy="0.5ex" text-anchor="end" font-family="sans-serif" font-size="12.903225806451614" opacity="1" fill="#000000">
1k
</text>
<polyline fill="none" opacity="1" stroke="#000000" stroke-width="1" points="54,84 59,84 "/>
<rect x="65" y="127" width="45" height="462" opacity="1" fill="#BDE56C" stroke="none"/>
<text x="88" y="117" dy="0.76em" text-anchor="start" font-family="sans-serif" font-size="12.903225806451614" opacity="1" fill="#000000" transform="rotate(270, 88, 117)">
914
</text>
<rect x="122" y="247" width="45" height="342" opacity="1" fill="#E796F3" stroke="none"/>
<text x="144" y="236" dy="0.76em" text-anchor="start" font-family="sans-serif" font-size="12.903225806451614" opacity="1" fill="#000000" transform="rotate(270, 144, 236)">
678
</text>
<rect x="178" y="485" width="45" height="104" opacity="1" fill="#07A865" stroke="none"/>
<text x="201" y="475" dy="0.76em" text-anchor="start" font-family="sans-serif" font-size="12.903225806451614" opacity="1" fill="#000000" transform="rotate(270, 201, 475)">
206
</text>
<rect x="234" y="507" width="45" height="82" opacity="1" fill="#1E90FF" stroke="none"/>
<text x="257" y="497" dy="0.76em" text-anchor="start" font-family="sans-serif" font-size="12.903225806451614" opacity="1" fill="#000000" transform="rotate(270, 257, 497)">
164
</text>
<rect x="291" y="551" width="45" height="38" opacity="1" fill="#DF682D" stroke="none"/>
<text x="313" y="541" dy="0.76em" text-anchor="start" font-family="sans-serif" font-size="12.903225806451614" opacity="1" fill="#000000" transform="rotate(270, 313, 541)">
76
</text>
<text x="529" y="55" dy="0.5ex" text-anchor="middle" font-family="sans-serif" font-size="16.129032258064516" opacity="1" fill="#000000">
Requests/GB·s
</text>
<polyline fill="none" opacity="1" stroke="#000000" stroke-width="1" points="412,80 412,589 "/>
<text x="403" y="589" dy="0.5ex" text-anchor="end" font-family="sans-serif" font-size="12.903225806451614" opacity="1" fill="#000000">
0
</text>
<polyline fill="none" opacity="1" stroke="#000000" stroke-width="1" points="407,589 412,589 "/>
<text x="403" y="520" dy="0.5ex" text-anchor="end" font-family="sans-serif" font-size="12.903225806451614" opacity="1" fill="#000000">
500
</text>
<polyline fill="none" opacity="1" stroke="#000000" stroke-width="1" points="407,520 412,520 "/>
<text x="403" y="450" dy="0.5ex" text-anchor="end" font-family="sans-serif" font-size="12.903225806451614" opacity="1" fill="#000000">
1k
</text>
<polyline fill="none" opacity="1" stroke="#000000" stroke-width="1" points="407,450 412,450 "/>
<text x="403" y="380" dy="0.5ex" text-anchor="end" font-family="sans-serif" font-size="12.903225806451614" opacity="1" fill="#000000">
2k
</text>
<polyline fill="none" opacity="1" stroke="#000000" stroke-width="1" points="407,380 412,380 "/>
<text x="403" y="310" dy="0.5ex" text-anchor="end" font-family="sans-serif" font-size="12.903225806451614" opacity="1" fill="#000000">
2k
</text>
<polyline fill="none" opacity="1" stroke="#000000" stroke-width="1" points="407,310 412,310 "/>
<text x="403" y="240" dy="0.5ex" text-anchor="end" font-family="sans-serif" font-size="12.903225806451614" opacity="1" fill="#000000">
2k
</text>
<polyline fill="none" opacity="1" stroke="#000000" stroke-width="1" points="407,240 412,240 "/>
<text x="403" y="170" dy="0.5ex" text-anchor="end" font-family="sans-serif" font-size="12.903225806451614" opacity="1" fill="#000000">
3k
</text>
<polyline fill="none" opacity="1" stroke="#000000" stroke-width="1" points="407,170 412,170 "/>
<text x="403" y="100" dy="0.5ex" text-anchor="end" font-family="sans-serif" font-size="12.903225806451614" opacity="1" fill="#000000">
4k
</text>
<polyline fill="none" opacity="1" stroke="#000000" stroke-width="1" points="407,100 412,100 "/>
<rect x="418" y="127" width="45" height="462" opacity="1" fill="#E796F3" stroke="none"/>
<text x="441" y="117" dy="0.76em" text-anchor="start" font-family="sans-serif" font-size="12.903225806451614" opacity="1" fill="#000000" transform="rotate(270, 441, 117)">
3k
</text>
<rect x="474" y="267" width="45" height="322" opacity="1" fill="#1E90FF" stroke="none"/>
<text x="497" y="257" dy="0.76em" text-anchor="start" font-family="sans-serif" font-size="12.903225806451614" opacity="1" fill="#000000" transform="rotate(270, 497, 257)">
2k
</text>
<rect x="531" y="391" width="44" height="198" opacity="1" fill="#07A865" stroke="none"/>
<text x="553" y="380" dy="0.76em" text-anchor="start" font-family="sans-serif" font-size="12.903225806451614" opacity="1" fill="#000000" transform="rotate(270, 553, 380)">
1k
</text>
<rect x="587" y="499" width="45" height="90" opacity="1" fill="#BDE56C" stroke="none"/>
<text x="609" y="489" dy="0.76em" text-anchor="start" font-family="sans-serif" font-size="12.903225806451614" opacity="1" fill="#000000" transform="rotate(270, 609, 489)">
648
</text>
<rect x="643" y="565" width="45" height="24" opacity="1" fill="#DF682D" stroke="none"/>
<text x="665" y="555" dy="0.76em" text-anchor="start" font-family="sans-serif" font-size="12.903225806451614" opacity="1" fill="#000000" transform="rotate(270, 665, 555)">
176
</text>
<rect x="710" y="60" width="15" height="15" opacity="1" fill="#07A865" stroke="none"/>
<text x="730" y="63" dy="0.76em" text-anchor="start" font-family="sans-serif" font-size="14.516129032258064" opacity="1" fill="#000000">
Apollo Router
</text>
<rect x="710" y="85" width="15" height="15" opacity="1" fill="#1E90FF" stroke="none"/>
<text x="730" y="88" dy="0.76em" text-anchor="start" font-family="sans-serif" font-size="14.516129032258064" opacity="1" fill="#000000">
Cosmo Router
</text>
<rect x="710" y="110" width="15" height="15" opacity="1" fill="#E796F3" stroke="none"/>
<text x="730" y="113" dy="0.76em" text-anchor="start" font-family="sans-serif" font-size="14.516129032258064" opacity="1" fill="#000000">
Grafbase Gateway
</text>
<rect x="710" y="135" width="15" height="15" opacity="1" fill="#DF682D" stroke="none"/>
<text x="730" y="138" dy="0.76em" text-anchor="start" font-family="sans-serif" font-size="14.516129032258064" opacity="1" fill="#000000">
Hive Gateway
</text>
<rect x="710" y="160" width="15" height="15" opacity="1" fill="#BDE56C" stroke="none"/>
<text x="730" y="163" dy="0.76em" text-anchor="start" font-family="sans-serif" font-size="14.516129032258064" opacity="1" fill="#000000">
Hive Router
</text>
</svg>
