<svg width="900" height="600" viewBox="0 0 900 600" xmlns="http://www.w3.org/2000/svg">
<rect x="0" y="0" width="900" height="600" opacity="1" fill="#FAFAFC" stroke="none"/>
<text x="355" y="20" dy="0.5ex" text-anchor="middle" font-family="sans-serif" font-size="24.193548387096776" opacity="1" fill="#000000">
query - efficiency
</text>
<text x="177" y="55" dy="0.5ex" text-anchor="middle" font-family="sans-serif" font-size="16.129032258064516" opacity="1" fill="#000000">
Requests/Core·s
</text>
<polyline fill="none" opacity="1" stroke="#000000" stroke-width="1" points="59,80 59,589 "/>
<text x="50" y="589" dy="0.5ex" text-anchor="end" font-family="sans-serif" font-size="12.903225806451614" opacity="1" fill="#000000">
0
</text>
<polyline fill="none" opacity="1" stroke="#000000" stroke-width="1" points="54,589 59,589 "/>
<text x="50" y="543" dy="0.5ex" text-anchor="end" font-family="sans-serif" font-size="12.903225806451614" opacity="1" fill="#000000">
100
</text>
<polyline fill="none" opacity="1" stroke="#000000" stroke-width="1" points="54,543 59,543 "/>
<text x="50" y="497" dy="0.5ex" text-anchor="end" font-family="sans-serif" font-size="12.903225806451614" opacity="1" fill="#000000">
200
</text>
<polyline fill="none" opacity="1" stroke="#000000" stroke-width="1" points="54,497 59,497 "/>
<text x="50" y="451" dy="0.5ex" text-anchor="end" font-family="sans-serif" font-size="12.903225806451614" opacity="1" fill="#000000">
300
</text>
<polyline fill="none" opacity="1" stroke="#000000" stroke-width="1" points="54,451 59,451 "/>
<text x="50" y="404" dy="0.5ex" text-anchor="end" font-family="sans-serif" font-size="12.903225806451614" opacity="1" fill="#000000">
400
</text>
<polyline fill="none" opacity="1" stroke="#000000" stroke-width="1" points="54,404 59,404 "/>
<text x="50" y="358" dy="0.5ex" text-anchor="end" font-family="sans-serif" font-size="12.903225806451614" opacity="1" fill="#000000">
500
</text>
<polyline fill="none" opacity="1" stroke="#000000" stroke-width="1" points="54,358 59,358 "/>
<text x="50" y="312" dy="0.5ex" text-anchor="end" font-family="sans-serif" font-size="12.903225806451614" opacity="1" fill="#000000">
600
</text>
<polyline fill="none" opacity="1" stroke="#000000" stroke-width="1" points="54,312 59,312 "/>
<text x="50" y="265" dy="0.5ex" text-anchor="end" font-family="sans-serif" font-size="12.903225806451614" opacity="1" fill="#000000">
700
</text>
<polyline fill="none" opacity="1" stroke="#000000" stroke-width="1" points="54,265 59,265 "/>
<text x="50" y="219" dy="0.5ex" text-anchor="end" font-family="sans-serif" font-size="12.903225806451614" opacity="1" fill="#000000">
800
</text>
<polyline fill="none" opacity="1" stroke="#000000" stroke-width="1" points="54,219 59,219 "/>
<text x="50" y="173" dy="0.5ex" text-anchor="end" font-family="sans-serif" font-size="12.903225806451614" opacity="1" fill="#000000">
900
</text>
<polyline fill="none" opacity="1" stroke="#000000" stroke-width="1" points="54,173 59,173 "/>
<text x="50" y="126" dy="0.5ex" text-anchor="end" font-family="sans-serif" font-size="12.903225806451614" opacity="1" fill="#000000">
1k
</text>
<polyline fill="none" opacity="1" stroke="#000000" stroke-width="1" points="54,126 59,126 "/>
<rect x="65" y="127" width="46" height="462" opacity="1" fill="#BDE56C" stroke="none"/>
<text x="88" y="117" dy="0.76em" text-anchor="start" font-family="sans-serif" font-size="12.903225806451614" opacity="1" fill="#000000" transform="rotate(270, 88, 117)">
999
</text>
<rect x="122" y="263" width="45" height="326" opacity="1" fill="#E796F3" stroke="none"/>
<text x="145" y="253" dy="0.76em" text-anchor="start" font-family="sans-serif" font-size="12.903225806451614" opacity="1" fill="#000000" transform="rotate(270, 145, 253)">
705
</text>
<rect x="179" y="511" width="45" height="78" opacity="1" fill="#07A865" stroke="none"/>
<text x="202" y="501" dy="0.76em" text-anchor="start" font-family="sans-serif" font-size="12.903225806451614" opacity="1" fill="#000000" transform="rotate(270, 202, 501)">
169
</text>
<rect x="236" y="523" width="45" height="66" opacity="1" fill="#1E90FF" stroke="none"/>
<text x="258" y="513" dy="0.76em" text-anchor="start" font-family="sans-serif" font-size="12.903225806451614" opacity="1" fill="#000000" transform="rotate(270, 258, 513)">
143
</text>
<rect x="292" y="546" width="46" height="43" opacity="1" fill="#DF682D" stroke="none"/>
<text x="315" y="536" dy="0.76em" text-anchor="start" font-family="sans-serif" font-size="12.903225806451614" opacity="1" fill="#000000" transform="rotate(270, 315, 536)">
94
</text>
<text x="532" y="55" dy="0.5ex" text-anchor="middle" font-family="sans-serif" font-size="16.129032258064516" opacity="1" fill="#000000">
Requests/GB·s
</text>
<polyline fill="none" opacity="1" stroke="#000000" stroke-width="1" points="414,80 414,589 "/>
<text x="405" y="589" dy="0.5ex" text-anchor="end" font-family="sans-serif" font-size="12.903225806451614" opacity="1" fill="#000000">
0
</text>
<polyline fill="none" opacity="1" stroke="#000000" stroke-width="1" points="409,589 414,589 "/>
<text x="405" y="531" dy="0.5ex" text-anchor="end" font-family="sans-serif" font-size="12.903225806451614" opacity="1" fill="#000000">
1k
</text>
<polyline fill="none" opacity="1" stroke="#000000" stroke-width="1" points="409,531 414,531 "/>
<text x="405" y="472" dy="0.5ex" text-anchor="end" font-family="sans-serif" font-size="12.903225806451614" opacity="1" fill="#000000">
2k
</text>
<polyline fill="none" opacity="1" stroke="#000000" stroke-width="1" points="409,472 414,472 "/>
<text x="405" y="413" dy="0.5ex" text-anchor="end" font-family="sans-serif" font-size="12.903225806451614" opacity="1" fill="#000000">
3k
</text>
<polyline fill="none" opacity="1" stroke="#000000" stroke-width="1" points="409,413 414,413 "/>
<text x="405" y="354" dy="0.5ex" text-anchor="end" font-family="sans-serif" font-size="12.903225806451614" opacity="1" fill="#000000">
4k
</text>
<polyline fill="none" opacity="1" stroke="#000000" stroke-width="1" points="409,354 414,354 "/>
<text x="405" y="295" dy="0.5ex" text-anchor="end" font-family="sans-serif" font-size="12.903225806451614" opacity="1" fill="#000000">
5k
</text>
<polyline fill="none" opacity="1" stroke="#000000" stroke-width="1" points="409,295 414,295 "/>
<text x="405" y="236" dy="0.5ex" text-anchor="end" font-family="sans-serif" font-size="12.903225806451614" opacity="1" fill="#000000">
6k
</text>
<polyline fill="none" opacity="1" stroke="#000000" stroke-width="1" points="409,236 414,236 "/>
<text x="405" y="177" dy="0.5ex" text-anchor="end" font-family="sans-serif" font-size="12.903225806451614" opacity="1" fill="#000000">
7k
</text>
<polyline fill="none" opacity="1" stroke="#000000" stroke-width="1" points="409,177 414,177 "/>
<text x="405" y="118" dy="0.5ex" text-anchor="end" font-family="sans-serif" font-size="12.903225806451614" opacity="1" fill="#000000">
8k
</text>
<polyline fill="none" opacity="1" stroke="#000000" stroke-width="1" points="409,118 414,118 "/>
<rect x="420" y="127" width="46" height="462" opacity="1" fill="#1E90FF" stroke="none"/>
<text x="443" y="117" dy="0.76em" text-anchor="start" font-family="sans-serif" font-size="12.903225806451614" opacity="1" fill="#000000" transform="rotate(270, 443, 117)">
8k
</text>
<rect x="477" y="203" width="45" height="386" opacity="1" fill="#E796F3" stroke="none"/>
<text x="500" y="193" dy="0.76em" text-anchor="start" font-family="sans-serif" font-size="12.903225806451614" opacity="1" fill="#000000" transform="rotate(270, 500, 193)">
7k
</text>
<rect x="534" y="412" width="45" height="177" opacity="1" fill="#BDE56C" stroke="none"/>
<text x="557" y="402" dy="0.76em" text-anchor="start" font-family="sans-serif" font-size="12.903225806451614" opacity="1" fill="#000000" transform="rotate(270, 557, 402)">
3k
</text>
<rect x="591" y="426" width="45" height="163" opacity="1" fill="#07A865" stroke="none"/>
<text x="613" y="416" dy="0.76em" text-anchor="start" font-family="sans-serif" font-size="12.903225806451614" opacity="1" fill="#000000" transform="rotate(270, 613, 416)">
3k
</text>
<rect x="647" y="578" width="46" height="11" opacity="1" fill="#DF682D" stroke="none"/>
<text x="670" y="568" dy="0.76em" text-anchor="start" font-family="sans-serif" font-size="12.903225806451614" opacity="1" fill="#000000" transform="rotate(270, 670, 568)">
193
</text>
<rect x="715" y="60" width="15" height="15" opacity="1" fill="#07A865" stroke="none"/>
<text x="735" y="63" dy="0.76em" text-anchor="start" font-family="sans-serif" font-size="14.516129032258064" opacity="1" fill="#000000">
Apollo Router
</text>
<rect x="715" y="85" width="15" height="15" opacity="1" fill="#1E90FF" stroke="none"/>
<text x="735" y="88" dy="0.76em" text-anchor="start" font-family="sans-serif" font-size="14.516129032258064" opacity="1" fill="#000000">
Cosmo Router
</text>
<rect x="715" y="110" width="15" height="15" opacity="1" fill="#E796F3" stroke="none"/>
<text x="735" y="113" dy="0.76em" text-anchor="start" font-family="sans-serif" font-size="14.516129032258064" opacity="1" fill="#000000">
Grafbase Gateway
</text>
<rect x="715" y="135" width="15" height="15" opacity="1" fill="#DF682D" stroke="none"/>
<text x="735" y="138" dy="0.76em" text-anchor="start" font-family="sans-serif" font-size="14.516129032258064" opacity="1" fill="#000000">
Hive Gateway
</text>
<rect x="715" y="160" width="15" height="15" opacity="1" fill="#BDE56C" stroke="none"/>
<text x="735" y="163" dy="0.76em" text-anchor="start" font-family="sans-serif" font-size="14.516129032258064" opacity="1" fill="#000000">
Hive Router
</text>
</svg>
